<?xml version="1.0" encoding="UTF-8"?>
<!DOCTYPE svg PUBLIC "-//W3C//DTD SVG 1.1//EN" "http://www.w3.org/Graphics/SVG/1.1/DTD/svg11.dtd">
<svg xmlns="http://www.w3.org/2000/svg" version="1.1" width="400px" height="400px" style="shape-rendering:geometricPrecision; text-rendering:geometricPrecision; image-rendering:optimizeQuality; fill-rule:evenodd; clip-rule:evenodd" xmlns:xlink="http://www.w3.org/1999/xlink">
<g><path style="opacity:0.993" fill="#43c9ed" d="M 180.5,-0.5 C 193.833,-0.5 207.167,-0.5 220.5,-0.5C 255.144,3.60414 286.811,15.6041 315.5,35.5C 277.741,64.8853 239.408,93.552 200.5,121.5C 199.501,105.848 199.167,90.1808 199.5,74.5C 146.411,77.2791 108.578,102.612 86,150.5C 68.3229,196.595 74.1562,239.428 103.5,279C 83.3763,295.031 62.7096,310.031 41.5,324C 17.9485,293.394 3.94847,258.894 -0.5,220.5C -0.5,207.167 -0.5,193.833 -0.5,180.5C 9.93537,104.443 49.602,49.6092 118.5,16C 138.544,7.65768 159.21,2.15768 180.5,-0.5 Z"/></g>
<g><path style="opacity:0.989" fill="#0194e2" d="M 399.5,178.5 C 399.5,191.833 399.5,205.167 399.5,218.5C 389.383,293.768 350.383,348.268 282.5,382C 261.9,390.981 240.566,396.814 218.5,399.5C 205.5,399.5 192.5,399.5 179.5,399.5C 144.479,395.603 112.479,383.603 83.5,363.5C 121.259,334.115 159.592,305.448 198.5,277.5C 199.499,293.152 199.833,308.819 199.5,324.5C 253.536,321.607 291.703,295.607 314,246.5C 330.433,200.942 324.267,158.775 295.5,120C 315.198,104.641 335.198,89.6406 355.5,75C 356.996,74.4926 358.163,74.9926 359,76.5C 381.626,106.877 395.126,140.877 399.5,178.5 Z"/></g>
</svg>
